<svg xmlns="http://www.w3.org/2000/svg" xmlns:xlink="http://www.w3.org/1999/xlink" width="1000" zoomAndPan="magnify" viewBox="0 0 750 225" height="300" preserveAspectRatio="xMidYMid meet" version="1.2"><defs><clipPath id="ee91e94d58"><path d="M 491.542969 74.167969 L 749.0625 74.167969 L 749.0625 85.40625 L 491.542969 85.40625 Z M 491.542969 74.167969 "/></clipPath><clipPath id="2a6783a07c"><path d="M 5.039062 52 L 192 52 L 192 202.601562 L 5.039062 202.601562 Z M 5.039062 52 "/></clipPath></defs><g id="e70f2f6dfc"><g style="fill:#ffffff;fill-opacity:1;"><g transform="translate(227.011606, 87.659902)"><path style="stroke:none" d="M 8.5625 -15.03125 C 10.875 -15.03125 12.796875 -14.3125 14.328125 -12.875 C 15.867188 -11.4375 16.640625 -9.632812 16.640625 -7.46875 C 16.640625 -5.300781 15.867188 -3.484375 14.328125 -2.015625 C 12.785156 -0.554688 10.863281 0.171875 8.5625 0.171875 C 6.257812 0.171875 4.34375 -0.554688 2.8125 -2.015625 C 1.28125 -3.472656 0.515625 -5.289062 0.515625 -7.46875 C 0.515625 -9.644531 1.28125 -11.445312 2.8125 -12.875 C 4.34375 -14.3125 6.257812 -15.03125 8.5625 -15.03125 Z M 8.609375 -11.859375 C 7.441406 -11.859375 6.445312 -11.4375 5.625 -10.59375 C 4.800781 -9.75 4.390625 -8.703125 4.390625 -7.453125 C 4.390625 -6.203125 4.800781 -5.144531 5.625 -4.28125 C 6.457031 -3.425781 7.445312 -3 8.59375 -3 C 9.75 -3 10.726562 -3.425781 11.53125 -4.28125 C 12.332031 -5.144531 12.734375 -6.203125 12.734375 -7.453125 C 12.734375 -8.703125 12.332031 -9.75 11.53125 -10.59375 C 10.726562 -11.4375 9.753906 -11.859375 8.609375 -11.859375 Z M 8.609375 -11.859375 "/></g></g><g style="fill:#ffffff;fill-opacity:1;"><g transform="translate(248.405862, 87.659902)"><path style="stroke:none" d="M 15.25 0 L 11.90625 0 L 5.046875 -9.171875 L 5.046875 0 L 1.484375 0 L 1.484375 -14.90625 L 4.828125 -14.90625 L 11.71875 -5.703125 L 11.71875 -14.90625 L 15.25 -14.90625 Z M 15.25 0 "/></g></g><g style="fill:#ffffff;fill-opacity:1;"><g transform="translate(269.395695, 87.659902)"><path style="stroke:none" d="M 5.28125 -3.171875 L 11.609375 -3.171875 L 11.609375 0 L 1.484375 0 L 1.484375 -14.90625 L 5.28125 -14.90625 Z M 5.28125 -3.171875 "/></g></g><g style="fill:#ffffff;fill-opacity:1;"><g transform="translate(285.574875, 87.659902)"><path style="stroke:none" d="M 5.28125 0 L 1.484375 0 L 1.484375 -14.90625 L 5.28125 -14.90625 Z M 5.28125 0 "/></g></g><g style="fill:#ffffff;fill-opacity:1;"><g transform="translate(296.602805, 87.659902)"><path style="stroke:none" d="M 15.25 0 L 11.90625 0 L 5.046875 -9.171875 L 5.046875 0 L 1.484375 0 L 1.484375 -14.90625 L 4.828125 -14.90625 L 11.71875 -5.703125 L 11.71875 -14.90625 L 15.25 -14.90625 Z M 15.25 0 "/></g></g><g style="fill:#ffffff;fill-opacity:1;"><g transform="translate(317.592639, 87.659902)"><path style="stroke:none" d="M 13.15625 -11.921875 L 5.28125 -11.921875 L 5.28125 -8.96875 L 12.390625 -8.96875 L 12.390625 -5.984375 L 5.28125 -5.984375 L 5.28125 -2.984375 L 13.390625 -2.984375 L 13.390625 0 L 1.484375 0 L 1.484375 -14.90625 L 13.15625 -14.90625 Z M 13.15625 -11.921875 "/></g></g><g style="fill:#ffffff;fill-opacity:1;"><g transform="translate(336.198425, 87.659902)"><path style="stroke:none" d=""/></g></g><g style="fill:#ffffff;fill-opacity:1;"><g transform="translate(345.395773, 87.659902)"><path style="stroke:none" d="M 8.46875 -15.03125 C 9.582031 -15.03125 10.675781 -14.800781 11.75 -14.34375 C 12.820312 -13.894531 13.734375 -13.285156 14.484375 -12.515625 L 12.28125 -9.921875 C 11.800781 -10.515625 11.222656 -10.984375 10.546875 -11.328125 C 9.878906 -11.679688 9.210938 -11.859375 8.546875 -11.859375 C 7.359375 -11.859375 6.367188 -11.441406 5.578125 -10.609375 C 4.785156 -9.785156 4.390625 -8.765625 4.390625 -7.546875 C 4.390625 -6.296875 4.785156 -5.25 5.578125 -4.40625 C 6.367188 -3.570312 7.359375 -3.15625 8.546875 -3.15625 C 9.171875 -3.15625 9.816406 -3.3125 10.484375 -3.625 C 11.160156 -3.9375 11.757812 -4.359375 12.28125 -4.890625 L 14.5 -2.5625 C 13.695312 -1.738281 12.742188 -1.078125 11.640625 -0.578125 C 10.535156 -0.078125 9.4375 0.171875 8.34375 0.171875 C 6.101562 0.171875 4.238281 -0.554688 2.75 -2.015625 C 1.257812 -3.484375 0.515625 -5.3125 0.515625 -7.5 C 0.515625 -9.644531 1.269531 -11.4375 2.78125 -12.875 C 4.300781 -14.3125 6.195312 -15.03125 8.46875 -15.03125 Z M 8.46875 -15.03125 "/></g></g><g style="fill:#ffffff;fill-opacity:1;"><g transform="translate(364.384714, 87.659902)"><path style="stroke:none" d="M 8.5625 -15.03125 C 10.875 -15.03125 12.796875 -14.3125 14.328125 -12.875 C 15.867188 -11.4375 16.640625 -9.632812 16.640625 -7.46875 C 16.640625 -5.300781 15.867188 -3.484375 14.328125 -2.015625 C 12.785156 -0.554688 10.863281 0.171875 8.5625 0.171875 C 6.257812 0.171875 4.34375 -0.554688 2.8125 -2.015625 C 1.28125 -3.472656 0.515625 -5.289062 0.515625 -7.46875 C 0.515625 -9.644531 1.28125 -11.445312 2.8125 -12.875 C 4.34375 -14.3125 6.257812 -15.03125 8.5625 -15.03125 Z M 8.609375 -11.859375 C 7.441406 -11.859375 6.445312 -11.4375 5.625 -10.59375 C 4.800781 -9.75 4.390625 -8.703125 4.390625 -7.453125 C 4.390625 -6.203125 4.800781 -5.144531 5.625 -4.28125 C 6.457031 -3.425781 7.445312 -3 8.59375 -3 C 9.75 -3 10.726562 -3.425781 11.53125 -4.28125 C 12.332031 -5.144531 12.734375 -6.203125 12.734375 -7.453125 C 12.734375 -8.703125 12.332031 -9.75 11.53125 -10.59375 C 10.726562 -11.4375 9.753906 -11.859375 8.609375 -11.859375 Z M 8.609375 -11.859375 "/></g></g><g style="fill:#ffffff;fill-opacity:1;"><g transform="translate(385.77897, 87.659902)"><path style="stroke:none" d="M 14.90625 -14.90625 L 14.90625 -6.265625 C 14.90625 -4.285156 14.296875 -2.71875 13.078125 -1.5625 C 11.859375 -0.40625 10.203125 0.171875 8.109375 0.171875 C 6.015625 0.171875 4.34375 -0.40625 3.09375 -1.5625 C 1.851562 -2.71875 1.234375 -4.285156 1.234375 -6.265625 L 1.234375 -14.90625 L 5.03125 -14.90625 L 5.03125 -6.265625 C 5.03125 -5.265625 5.316406 -4.46875 5.890625 -3.875 C 6.460938 -3.289062 7.210938 -3 8.140625 -3 C 9.046875 -3 9.769531 -3.289062 10.3125 -3.875 C 10.863281 -4.457031 11.140625 -5.253906 11.140625 -6.265625 L 11.140625 -14.90625 Z M 14.90625 -14.90625 "/></g></g><g style="fill:#ffffff;fill-opacity:1;"><g transform="translate(406.172779, 87.659902)"><path style="stroke:none" d="M 10.484375 0 L 8.265625 -4.203125 L 5.28125 -4.203125 L 5.28125 0 L 1.484375 0 L 1.484375 -14.90625 L 8.15625 -14.90625 C 10.125 -14.90625 11.648438 -14.453125 12.734375 -13.546875 C 13.816406 -12.648438 14.359375 -11.375 14.359375 -9.71875 C 14.359375 -7.414062 13.457031 -5.816406 11.65625 -4.921875 L 14.78125 0 Z M 5.28125 -7.171875 L 8.15625 -7.171875 C 8.976562 -7.171875 9.613281 -7.375 10.0625 -7.78125 C 10.519531 -8.195312 10.75 -8.796875 10.75 -9.578125 C 10.75 -10.347656 10.519531 -10.929688 10.0625 -11.328125 C 9.613281 -11.722656 8.976562 -11.921875 8.15625 -11.921875 L 5.28125 -11.921875 Z M 5.28125 -7.171875 "/></g></g><g style="fill:#ffffff;fill-opacity:1;"><g transform="translate(425.842863, 87.659902)"><path style="stroke:none" d="M 7.21875 -15.078125 C 9.445312 -15.078125 11.40625 -14.523438 13.09375 -13.421875 L 11.671875 -10.453125 C 10.890625 -10.910156 10.050781 -11.285156 9.15625 -11.578125 C 8.257812 -11.867188 7.507812 -12.015625 6.90625 -12.015625 C 5.8125 -12.015625 5.265625 -11.648438 5.265625 -10.921875 C 5.265625 -10.453125 5.53125 -10.078125 6.0625 -9.796875 C 6.601562 -9.515625 7.257812 -9.269531 8.03125 -9.0625 C 8.8125 -8.851562 9.585938 -8.601562 10.359375 -8.3125 C 11.128906 -8.019531 11.785156 -7.546875 12.328125 -6.890625 C 12.867188 -6.242188 13.140625 -5.425781 13.140625 -4.4375 C 13.140625 -3 12.578125 -1.878906 11.453125 -1.078125 C 10.335938 -0.273438 8.910156 0.125 7.171875 0.125 C 5.941406 0.125 4.722656 -0.0859375 3.515625 -0.515625 C 2.304688 -0.941406 1.253906 -1.519531 0.359375 -2.25 L 1.828125 -5.171875 C 2.578125 -4.523438 3.460938 -3.988281 4.484375 -3.5625 C 5.515625 -3.144531 6.425781 -2.9375 7.21875 -2.9375 C 7.832031 -2.9375 8.304688 -3.046875 8.640625 -3.265625 C 8.984375 -3.484375 9.15625 -3.804688 9.15625 -4.234375 C 9.15625 -4.648438 8.957031 -4.992188 8.5625 -5.265625 C 8.175781 -5.546875 7.691406 -5.753906 7.109375 -5.890625 C 6.523438 -6.023438 5.894531 -6.203125 5.21875 -6.421875 C 4.539062 -6.648438 3.910156 -6.898438 3.328125 -7.171875 C 2.742188 -7.441406 2.253906 -7.867188 1.859375 -8.453125 C 1.472656 -9.046875 1.28125 -9.753906 1.28125 -10.578125 C 1.28125 -11.941406 1.820312 -13.03125 2.90625 -13.84375 C 3.988281 -14.664062 5.425781 -15.078125 7.21875 -15.078125 Z M 7.21875 -15.078125 "/></g></g><g style="fill:#ffffff;fill-opacity:1;"><g transform="translate(443.810066, 87.659902)"><path style="stroke:none" d="M 13.15625 -11.921875 L 5.28125 -11.921875 L 5.28125 -8.96875 L 12.390625 -8.96875 L 12.390625 -5.984375 L 5.28125 -5.984375 L 5.28125 -2.984375 L 13.390625 -2.984375 L 13.390625 0 L 1.484375 0 L 1.484375 -14.90625 L 13.15625 -14.90625 Z M 13.15625 -11.921875 "/></g></g><g style="fill:#ffffff;fill-opacity:1;"><g transform="translate(462.415852, 87.659902)"><path style="stroke:none" d="M 7.21875 -15.078125 C 9.445312 -15.078125 11.40625 -14.523438 13.09375 -13.421875 L 11.671875 -10.453125 C 10.890625 -10.910156 10.050781 -11.285156 9.15625 -11.578125 C 8.257812 -11.867188 7.507812 -12.015625 6.90625 -12.015625 C 5.8125 -12.015625 5.265625 -11.648438 5.265625 -10.921875 C 5.265625 -10.453125 5.53125 -10.078125 6.0625 -9.796875 C 6.601562 -9.515625 7.257812 -9.269531 8.03125 -9.0625 C 8.8125 -8.851562 9.585938 -8.601562 10.359375 -8.3125 C 11.128906 -8.019531 11.785156 -7.546875 12.328125 -6.890625 C 12.867188 -6.242188 13.140625 -5.425781 13.140625 -4.4375 C 13.140625 -3 12.578125 -1.878906 11.453125 -1.078125 C 10.335938 -0.273438 8.910156 0.125 7.171875 0.125 C 5.941406 0.125 4.722656 -0.0859375 3.515625 -0.515625 C 2.304688 -0.941406 1.253906 -1.519531 0.359375 -2.25 L 1.828125 -5.171875 C 2.578125 -4.523438 3.460938 -3.988281 4.484375 -3.5625 C 5.515625 -3.144531 6.425781 -2.9375 7.21875 -2.9375 C 7.832031 -2.9375 8.304688 -3.046875 8.640625 -3.265625 C 8.984375 -3.484375 9.15625 -3.804688 9.15625 -4.234375 C 9.15625 -4.648438 8.957031 -4.992188 8.5625 -5.265625 C 8.175781 -5.546875 7.691406 -5.753906 7.109375 -5.890625 C 6.523438 -6.023438 5.894531 -6.203125 5.21875 -6.421875 C 4.539062 -6.648438 3.910156 -6.898438 3.328125 -7.171875 C 2.742188 -7.441406 2.253906 -7.867188 1.859375 -8.453125 C 1.472656 -9.046875 1.28125 -9.753906 1.28125 -10.578125 C 1.28125 -11.941406 1.820312 -13.03125 2.90625 -13.84375 C 3.988281 -14.664062 5.425781 -15.078125 7.21875 -15.078125 Z M 7.21875 -15.078125 "/></g></g><g style="fill:#ffffff;fill-opacity:1;"><g transform="translate(217.888042, 165.496627)"><path style="stroke:none" d="M 26.71875 1.015625 C 22 1.015625 17.742188 0.03125 13.953125 -1.9375 C 10.171875 -3.914062 7.207031 -6.679688 5.0625 -10.234375 C 2.914062 -13.785156 1.84375 -17.8125 1.84375 -22.3125 C 1.84375 -26.8125 2.914062 -30.835938 5.0625 -34.390625 C 7.207031 -37.941406 10.171875 -40.703125 13.953125 -42.671875 C 17.742188 -44.648438 22 -45.640625 26.71875 -45.640625 C 31.050781 -45.640625 34.914062 -44.875 38.3125 -43.34375 C 41.707031 -41.820312 44.515625 -39.613281 46.734375 -36.71875 L 37.234375 -28.234375 C 34.472656 -31.722656 31.21875 -33.46875 27.46875 -33.46875 C 24.332031 -33.46875 21.804688 -32.457031 19.890625 -30.4375 C 17.972656 -28.414062 17.015625 -25.707031 17.015625 -22.3125 C 17.015625 -18.914062 17.972656 -16.207031 19.890625 -14.1875 C 21.804688 -12.164062 24.332031 -11.15625 27.46875 -11.15625 C 31.21875 -11.15625 34.472656 -12.898438 37.234375 -16.390625 L 46.734375 -7.90625 C 44.515625 -5.007812 41.707031 -2.796875 38.3125 -1.265625 C 34.914062 0.253906 31.050781 1.015625 26.71875 1.015625 Z M 26.71875 1.015625 "/></g></g><g style="fill:#ffffff;fill-opacity:1;"><g transform="translate(274.870052, 165.496627)"><path style="stroke:none" d="M 27.03125 1.015625 C 22.226562 1.015625 17.910156 0.0195312 14.078125 -1.96875 C 10.253906 -3.96875 7.257812 -6.742188 5.09375 -10.296875 C 2.925781 -13.847656 1.84375 -17.851562 1.84375 -22.3125 C 1.84375 -26.769531 2.925781 -30.773438 5.09375 -34.328125 C 7.257812 -37.878906 10.253906 -40.648438 14.078125 -42.640625 C 17.910156 -44.640625 22.226562 -45.640625 27.03125 -45.640625 C 31.832031 -45.640625 36.144531 -44.640625 39.96875 -42.640625 C 43.789062 -40.648438 46.785156 -37.878906 48.953125 -34.328125 C 51.128906 -30.773438 52.21875 -26.769531 52.21875 -22.3125 C 52.21875 -17.851562 51.128906 -13.847656 48.953125 -10.296875 C 46.785156 -6.742188 43.789062 -3.96875 39.96875 -1.96875 C 36.144531 0.0195312 31.832031 1.015625 27.03125 1.015625 Z M 27.03125 -11.15625 C 28.894531 -11.15625 30.582031 -11.609375 32.09375 -12.515625 C 33.601562 -13.429688 34.800781 -14.726562 35.6875 -16.40625 C 36.582031 -18.09375 37.03125 -20.0625 37.03125 -22.3125 C 37.03125 -24.5625 36.582031 -26.523438 35.6875 -28.203125 C 34.800781 -29.890625 33.601562 -31.1875 32.09375 -32.09375 C 30.582031 -33.007812 28.894531 -33.46875 27.03125 -33.46875 C 25.15625 -33.46875 23.460938 -33.007812 21.953125 -32.09375 C 20.453125 -31.1875 19.253906 -29.890625 18.359375 -28.203125 C 17.460938 -26.523438 17.015625 -24.5625 17.015625 -22.3125 C 17.015625 -20.0625 17.460938 -18.09375 18.359375 -16.40625 C 19.253906 -14.726562 20.453125 -13.429688 21.953125 -12.515625 C 23.460938 -11.609375 25.15625 -11.15625 27.03125 -11.15625 Z M 27.03125 -11.15625 "/></g></g><g style="fill:#ffffff;fill-opacity:1;"><g transform="translate(338.480491, 165.496627)"><path style="stroke:none" d="M 3.640625 -44.625 L 25.625 -44.625 C 30.601562 -44.625 34.992188 -43.71875 38.796875 -41.90625 C 42.597656 -40.101562 45.550781 -37.523438 47.65625 -34.171875 C 49.757812 -30.816406 50.8125 -26.863281 50.8125 -22.3125 C 50.8125 -17.757812 49.757812 -13.804688 47.65625 -10.453125 C 45.550781 -7.097656 42.597656 -4.515625 38.796875 -2.703125 C 34.992188 -0.898438 30.601562 0 25.625 0 L 3.640625 0 Z M 24.984375 -11.734375 C 28.210938 -11.734375 30.796875 -12.65625 32.734375 -14.5 C 34.671875 -16.351562 35.640625 -18.957031 35.640625 -22.3125 C 35.640625 -25.664062 34.671875 -28.265625 32.734375 -30.109375 C 30.796875 -31.960938 28.210938 -32.890625 24.984375 -32.890625 L 18.671875 -32.890625 L 18.671875 -11.734375 Z M 24.984375 -11.734375 "/></g></g><g style="fill:#ffffff;fill-opacity:1;"><g transform="translate(400.688753, 165.496627)"><path style="stroke:none" d="M 40.734375 -11.34375 L 40.734375 0 L 3.640625 0 L 3.640625 -44.625 L 39.90625 -44.625 L 39.90625 -33.28125 L 18.421875 -33.28125 L 18.421875 -28.046875 L 37.296875 -28.046875 L 37.296875 -17.21875 L 18.421875 -17.21875 L 18.421875 -11.34375 Z M 40.734375 -11.34375 "/></g></g><g style="fill:#ffffff;fill-opacity:1;"><g transform="translate(453.145602, 165.496627)"><path style="stroke:none" d=""/></g></g><g style="fill:#ffffff;fill-opacity:1;"><g transform="translate(481.82941, 165.496627)"><path style="stroke:none" d="M 26.71875 1.015625 C 22 1.015625 17.742188 0.03125 13.953125 -1.9375 C 10.171875 -3.914062 7.207031 -6.679688 5.0625 -10.234375 C 2.914062 -13.785156 1.84375 -17.8125 1.84375 -22.3125 C 1.84375 -26.8125 2.914062 -30.835938 5.0625 -34.390625 C 7.207031 -37.941406 10.171875 -40.703125 13.953125 -42.671875 C 17.742188 -44.648438 22 -45.640625 26.71875 -45.640625 C 31.050781 -45.640625 34.914062 -44.875 38.3125 -43.34375 C 41.707031 -41.820312 44.515625 -39.613281 46.734375 -36.71875 L 37.234375 -28.234375 C 34.472656 -31.722656 31.21875 -33.46875 27.46875 -33.46875 C 24.332031 -33.46875 21.804688 -32.457031 19.890625 -30.4375 C 17.972656 -28.414062 17.015625 -25.707031 17.015625 -22.3125 C 17.015625 -18.914062 17.972656 -16.207031 19.890625 -14.1875 C 21.804688 -12.164062 24.332031 -11.15625 27.46875 -11.15625 C 31.21875 -11.15625 34.472656 -12.898438 37.234375 -16.390625 L 46.734375 -7.90625 C 44.515625 -5.007812 41.707031 -2.796875 38.3125 -1.265625 C 34.914062 0.253906 31.050781 1.015625 26.71875 1.015625 Z M 26.71875 1.015625 "/></g></g><g style="fill:#ffffff;fill-opacity:1;"><g transform="translate(538.81142, 165.496627)"><path style="stroke:none" d="M 22.765625 -11.21875 L 18.671875 -11.21875 L 18.671875 0 L 3.640625 0 L 3.640625 -44.625 L 25.125 -44.625 C 29.238281 -44.625 32.828125 -43.941406 35.890625 -42.578125 C 38.953125 -41.222656 41.3125 -39.269531 42.96875 -36.71875 C 44.625 -34.164062 45.453125 -31.191406 45.453125 -27.796875 C 45.453125 -24.609375 44.726562 -21.820312 43.28125 -19.4375 C 41.84375 -17.0625 39.757812 -15.171875 37.03125 -13.765625 L 46.40625 0 L 30.34375 0 Z M 30.28125 -27.796875 C 30.28125 -29.453125 29.769531 -30.734375 28.75 -31.640625 C 27.726562 -32.554688 26.195312 -33.015625 24.15625 -33.015625 L 18.671875 -33.015625 L 18.671875 -22.5625 L 24.15625 -22.5625 C 26.195312 -22.5625 27.726562 -23.019531 28.75 -23.9375 C 29.769531 -24.851562 30.28125 -26.140625 30.28125 -27.796875 Z M 30.28125 -27.796875 "/></g></g><g style="fill:#ffffff;fill-opacity:1;"><g transform="translate(595.857162, 165.496627)"><path style="stroke:none" d="M 34.046875 -7.78125 L 17.078125 -7.78125 L 14.09375 0 L -1.21875 0 L 18.296875 -44.625 L 33.09375 -44.625 L 52.59375 0 L 37.03125 0 Z M 29.90625 -18.609375 L 25.5625 -29.828125 L 21.234375 -18.609375 Z M 29.90625 -18.609375 "/></g></g><g style="fill:#ffffff;fill-opacity:1;"><g transform="translate(656.790733, 165.496627)"><path style="stroke:none" d="M 13.328125 -32.953125 L 0.25 -32.953125 L 0.25 -44.625 L 41.4375 -44.625 L 41.4375 -32.953125 L 28.375 -32.953125 L 28.375 0 L 13.328125 0 Z M 13.328125 -32.953125 "/></g></g><g style="fill:#ffffff;fill-opacity:1;"><g transform="translate(708.036621, 165.496627)"><path style="stroke:none" d="M 40.734375 -11.34375 L 40.734375 0 L 3.640625 0 L 3.640625 -44.625 L 39.90625 -44.625 L 39.90625 -33.28125 L 18.421875 -33.28125 L 18.421875 -28.046875 L 37.296875 -28.046875 L 37.296875 -17.21875 L 18.421875 -17.21875 L 18.421875 -11.34375 Z M 40.734375 -11.34375 "/></g></g><g clip-rule="nonzero" clip-path="url(#ee91e94d58)"><path style=" stroke:none;fill-rule:nonzero;fill:#440fac;fill-opacity:1;" d="M 491.542969 74.167969 L 749.058594 74.167969 L 749.058594 85.40625 L 491.542969 85.40625 Z M 491.542969 74.167969 "/></g><path style=" stroke:none;fill-rule:nonzero;fill:#410fa3;fill-opacity:1;" d="M 110.675781 70.6875 L 169.058594 42.859375 L 109.234375 15.710938 C 101.4375 12.152344 92.464844 12.230469 84.664062 15.863281 L 27 42.820312 L 85.382812 70.6875 C 93.410156 74.511719 102.6875 74.511719 110.675781 70.6875 Z M 110.675781 70.6875 "/><g clip-rule="nonzero" clip-path="url(#2a6783a07c)"><path style=" stroke:none;fill-rule:nonzero;fill:#410fa3;fill-opacity:1;" d="M 180.1875 143.988281 C 178.824219 143.796875 177.425781 144.023438 176.136719 144.515625 L 142.894531 157.65625 L 109.878906 170.714844 C 102.421875 173.671875 94.089844 173.671875 86.632812 170.679688 L 38.019531 151.21875 C 34.609375 149.742188 31.128906 148.339844 27.605469 147.054688 C 27.378906 146.75 27.226562 146.523438 27 146.21875 C 26.925781 140.542969 27 134.863281 26.925781 129.183594 C 27.078125 129.675781 28.96875 130.355469 30.863281 130.925781 L 69.480469 147.960938 C 70.957031 148.644531 72.472656 149.289062 73.949219 149.929688 L 76.75 151.179688 L 76.75 151.105469 C 81.632812 153.074219 86.59375 154.816406 91.742188 156.101562 C 100.074219 158.183594 108.363281 155.117188 116.164062 152.429688 C 138.085938 144.742188 158 132.023438 179.542969 123.390625 C 184.730469 121.308594 190.410156 117.9375 191.394531 111.957031 C 192.078125 108.511719 190.902344 105.292969 188.820312 102.753906 C 188.820312 102.71875 188.78125 102.71875 188.746094 102.679688 C 183.332031 95.371094 176.023438 97.453125 174.167969 98.136719 C 174.09375 98.175781 174.015625 98.175781 173.941406 98.210938 C 173.789062 98.25 173.714844 98.289062 173.714844 98.289062 C 150.617188 108.773438 127.976562 120.550781 104.351562 129.636719 C 100.222656 131 95.792969 130.203125 91.628906 129.449219 C 69.214844 122.066406 48.882812 108.890625 26.46875 101.390625 C 26.660156 95.222656 26.960938 89.050781 26.886719 82.878906 C 29.121094 83.75 31.242188 84.847656 33.398438 85.867188 C 43.394531 90.753906 53.503906 95.335938 63.613281 99.914062 C 72.8125 104.117188 82.203125 109.644531 92.5 110.402344 C 112.152344 111.84375 128.582031 101.316406 145.621094 93.328125 C 155.464844 88.707031 165.648438 84.734375 175.378906 79.847656 C 181.511719 77.046875 190.03125 74.625 191.355469 66.824219 C 191.773438 64.210938 191.207031 61.75 190.03125 59.59375 C 186.890625 53.726562 179.773438 51.226562 173.410156 53.234375 C 167.957031 54.972656 163 57.925781 157.773438 60.125 C 151.753906 62.660156 145.847656 65.574219 139.867188 68.300781 C 131.875 72.085938 123.8125 75.683594 115.785156 79.355469 C 111.886719 81.136719 107.949219 83.40625 103.898438 84.621094 C 99.769531 85.832031 95.71875 85.1875 91.59375 84.277344 C 70.425781 76.214844 50.097656 65.800781 29.574219 56.148438 C 25.789062 53.648438 20.675781 52.210938 15.984375 52.550781 C 9.734375 53.042969 5.039062 58.457031 5.039062 64.742188 L 5.683594 152.503906 C 5.722656 157.84375 8.5625 162.765625 13.179688 165.417969 C 18.632812 168.558594 26.660156 173.0625 35.859375 177.871094 C 35.898438 177.910156 35.972656 177.949219 36.050781 177.949219 C 42.257812 180.9375 48.621094 183.664062 54.828125 186.695312 C 61.1875 189.683594 67.511719 192.789062 73.949219 195.589844 C 78 197.183594 82.125 198.621094 86.292969 199.871094 C 90.078125 201.007812 94.089844 202.292969 98.105469 202.367188 C 103.253906 202.445312 108.328125 200.628906 112.984375 198.621094 C 116.960938 196.878906 120.859375 195.0625 124.796875 193.320312 C 124.835938 193.320312 124.871094 193.28125 124.910156 193.28125 C 129.039062 191.425781 133.203125 189.570312 137.328125 187.714844 C 141.910156 185.671875 146.453125 183.628906 151.035156 181.582031 C 155.390625 179.613281 159.78125 177.683594 164.136719 175.714844 C 167.65625 174.125 171.214844 172.570312 174.734375 170.980469 C 176.820312 170.074219 178.863281 169.125 180.945312 168.21875 C 181.210938 168.105469 181.511719 167.953125 181.777344 167.839844 L 182.347656 167.574219 L 182.421875 167.648438 C 186.777344 165.378906 191.09375 162.234375 191.699219 157.125 C 192.339844 149.058594 186.8125 144.933594 180.1875 143.988281 Z M 180.1875 143.988281 "/></g></g></svg>